PathFileType	4	(X/Y/Z)	Patient4_TMGait_0pt3_02_left_15.trc.trc
DataRate	CameraRate	NumFrames	NumMarkers	Units	OrigDataRate	OrigDataStartFrame	OrigNumFrames
52.631578947368	52.631578947368	4	33	mm	52.631578947368	71	       141
Frame#	Time	Sacral			L.Shoulder			Chest			R.Shoulder			Neck			R.ASIS			L.ASIS			R.Thigh.Superior			R.Thigh.Lateral			R.Thigh.Inferior			R.Patella			L.Thigh.Superior			L.Thigh.Lateral			L.Thigh.Inferior			L.Patella			L.Shank.Superior			L.Shank.Lateral			L.Shank.Inferior			R.Shank.Superior			R.Shank.Lateral			R.Shank.Inferior			R.Heel			R.Midfoot.Superior			R.Midfoot.Lateral			R.Toe			L.Heel			L.Midfoot.Lateral			L.Midfoot.Superior			L.Toe			L.Elbow			L.Wrist			R.Elbow			R.Wrist			
		X1	Y1	Z1	X2	Y2	Z2	X3	Y3	Z3	X4	Y4	Z4	X5	Y5	Z5	X6	Y6	Z6	X7	Y7	Z7	X8	Y8	Z8	X9	Y9	Z9	X10	Y10	Z10	X11	Y11	Z11	X12	Y12	Z12	X13	Y13	Z13	X14	Y14	Z14	X15	Y15	Z15	X16	Y16	Z16	X17	Y17	Z17	X18	Y18	Z18	X19	Y19	Z19	X20	Y20	Z20	X21	Y21	Z21	X22	Y22	Z22	X23	Y23	Z23	X24	Y24	Z24	X25	Y25	Z25	X26	Y26	Z26	X27	Y27	Z27	X28	Y28	Z28	X29	Y29	Z29	X30	Y30	Z30	X31	Y31	Z31	X32	Y32	Z32	X33	Y33	Z33	

71	30.340000000000	699.728334485544	1002.966390625022	391.149590796154	913.635446849289	1446.449923276676	265.611356803573	978.893082844785	1365.334129761321	439.591370331014	859.067530643758	1426.254838566021	595.449202286366	860.811804958043	1494.873958010495	422.183703099082	912.182873047872	944.485563518068	543.042716765230	937.932184674052	965.224263468174	270.615489042284	998.128516966545	770.384352654703	513.910644220364	950.998710976251	651.604790289265	585.546321274776	1039.227993859860	612.753259924753	506.331741360599	1070.311133816133	521.344144239332	528.826061513220	968.432323464803	739.833957523197	314.238518125346	881.187045554679	622.728283938682	250.599389505824	948.361433587360	545.919694665781	330.731506695503	942.709127829840	476.208759011225	343.036022430798	908.160676010272	404.819472410346	334.539988175677	813.188344219480	296.262576497388	280.277134642384	841.796271727925	185.584047734671	362.424514511685	1034.979820002023	432.561088943478	543.395417161628	956.485140010690	336.597813638109	610.562674194253	1005.807089284948	235.223064711270	564.922401639680	876.155131797725	64.505023196222	543.503356357710	1047.493484337955	119.482858821222	584.542453014004	959.774783894154	53.572362136414	617.171555710201	1165.931554373193	69.497937028455	610.716076903503	699.032175406753	38.366132255604	402.220929597353	774.647932920545	35.104107923775	323.026414708763	858.035978107580	95.297130402652	352.730837057845	986.441585807019	44.517131886804	326.057677824969	1066.973080990432	1178.964839431117	86.521241193989	1319.549877180014	1116.177115013657	109.091703678744	692.517369863210	1117.454628855339	677.237330455133	661.450107154550	859.776828157149	704.259009552975	
72	30.359000000000	700.487145044043	1003.796908744848	390.892987275101	917.239520490492	1446.650703283646	269.092009437555	979.876500049803	1365.067841052987	443.879625544342	858.161810911125	1426.819719844061	598.140202674261	862.483786140103	1495.036001800088	424.937559960274	910.705341542131	943.959186624186	545.675975100220	939.848571623033	965.327328064020	273.509771866303	995.040930439236	768.639608107606	518.022260751789	945.206131860803	650.202706861499	588.583339119789	1034.465053182966	611.141535238672	510.969586755054	1064.871806964285	521.680674177504	532.743525487752	966.689032069252	738.820104180970	316.009675114297	877.761388586839	623.351420054146	250.820244203626	942.962890625464	545.214785223076	330.846238004616	936.033991352777	475.927346418714	342.899965889612	902.016184215567	405.014115460304	334.222380046484	807.274789622909	296.330241142621	279.832746076697	835.897862754194	185.717966114390	362.137079059228	1033.297052360088	432.347605422598	546.393797403796	959.083174101655	332.441986386787	612.997802311364	1013.058349958592	233.502285620654	566.759048925661	890.724770172819	58.256801487664	544.357719132745	1060.317194120390	118.269577211116	585.475816196362	975.029274372715	48.610234105888	617.173540623504	1180.584218070518	71.675121321781	609.924226171179	693.304532100959	38.400126288953	402.131441952320	768.910514067914	35.045255905651	322.963086227319	852.338582200067	95.227354513607	352.610819005968	980.759145613641	44.275662294425	326.093516446769	1073.364942541154	1183.091117204382	88.571549980092	1327.893049439937	1130.473018776627	112.645115945650	682.582213402032	1123.430461922173	676.572021269236	644.645235870611	867.066317337983	703.146079066387	
73	30.378000000000	701.388436778181	1004.097977166306	391.249787070190	920.531525404371	1446.241312956407	272.607579320366	980.872672803590	1364.436282081703	448.155743112245	857.506183832088	1427.073164395085	600.969618384550	864.138952244171	1494.776564164463	427.742623561783	909.538033048538	942.973434517560	548.533928942827	941.763131970704	964.984228976563	276.648434250724	992.226876814852	766.342454024851	522.285954182907	939.575599637288	648.210181251329	591.459534137873	1029.868562712601	609.002395739751	515.410762502877	1059.240354190753	521.204884051767	536.333870037286	965.382892787279	737.649380599175	317.947777761488	874.866506662594	623.729229139814	251.368798289427	938.292270099120	544.367158964781	331.186284016064	930.177617972294	475.442331439665	343.003356871024	896.534974968281	404.957837527901	334.152292685526	801.776720337203	296.376713150097	279.592190058199	830.242114590607	185.727391583933	361.949366460484	1030.974876163601	431.456778072385	549.123911921947	960.387437120824	328.337468183796	614.924462307792	1018.324640467972	231.699716196441	568.229814711692	902.224118629649	53.377173729008	544.559948787865	1070.265237172143	116.987939414024	586.140329454552	986.818725922729	44.666596368307	616.864578514980	1191.694103824387	72.901132153655	609.521206107213	687.582696197542	38.428069085493	402.059722593567	763.180553351770	34.990142349896	322.908478335040	846.655753541097	95.145009756132	352.524472418516	975.081457459904	44.005488902715	326.128222262347	1079.140393984490	1186.037817930044	91.128434787409	1335.261120028083	1143.583532449222	116.442431328618	674.960954018638	1128.153935857898	675.976699218054	631.377464879691	872.866999914436	701.649412649989	
74	30.397000000000	702.452924949458	1003.959658337823	392.244320114340	923.536673403205	1445.354747585243	276.184518585019	981.903170922484	1363.534079631796	452.440061735513	857.106809688695	1427.046600980488	603.965417897602	865.778850160537	1494.184723648045	430.649537457110	908.718135378057	941.656634294444	551.614306264194	943.693985242220	964.285932689419	280.018035928917	989.752718354753	763.627256902083	526.642985100138	934.219492585362	645.756437850081	594.125074330434	1025.515722737541	606.462651501439	519.559807745302	1053.543094756446	520.026565630621	539.510038292106	964.505389037175	736.355532733476	320.078035626685	872.477966224918	623.890637300973	252.285548668256	934.329495390525	543.397657150018	331.802097508953	925.124142308836	474.773367366319	343.398955421493	891.687359751224	404.675878088175	334.369370407776	796.665611011882	296.428526992980	279.584100356683	824.809951321429	185.628607605157	361.878765177160	1028.120037724334	429.960687722536	551.534859044133	960.454140392603	324.306058841877	616.356650022326	1021.639651000402	229.741396358462	569.313378041929	910.539968320572	49.645567095235	544.181351839234	1077.330074991085	115.523260040003	586.496408501777	995.075136245805	41.615377837086	616.344841037529	1199.352391655002	73.073288112726	609.517056807033	681.864427317315	38.451373690004	401.999960677234	757.456847072071	34.942281980405	322.863554543804	840.983135180077	95.059272991979	352.470894740631	969.402548323082	43.719164119477	326.161006416359	1084.286218860752	1187.905402897004	94.152528633996	1341.648254793650	1155.482819083439	120.431623304841	669.615079331771	1131.496065501146	675.539357222363	621.510257685442	876.995125726177	699.965956531484	
